<?xml version="1.0" encoding="utf-8"?>
<!-- Generator: Adobe Illustrator 18.0.0, SVG Export Plug-In . SVG Version: 6.00 Build 0)  -->
<!DOCTYPE svg PUBLIC "-//W3C//DTD SVG 1.1//EN" "http://www.w3.org/Graphics/SVG/1.1/DTD/svg11.dtd">
<svg version="1.1" id="Capa_1" xmlns="http://www.w3.org/2000/svg" xmlns:xlink="http://www.w3.org/1999/xlink" x="0px" y="0px"
	 viewBox="0 0 74.5 74.5" enable-background="new 0 0 74.5 74.5" xml:space="preserve">
<g>
	<circle fill="#97BA6E" cx="37.2" cy="37.2" r="36.3"/>
	<g>
		<g>
			<g>
				<path fill="#FFFFFF" d="M50.3,59.6c-2.1,0-4.7-0.9-7.6-2.7c-1.9-1.2-3.8-1.8-5.4-1.8c-0.4,0-0.8,0-1.2,0.1
					c-0.9,0.2-2,0.6-3.4,1.1c-3.1,1.1-6.9,2.4-9.9,2.4c-3.5,0-4.6-1.9-5-3.5c-0.6-2.8,1.7-6.7,3.5-9.8c0.5-0.8,1.1-1.9,1.4-2.4
					c-2.9-2.8-8.2-11.5-7.3-17c0.3-2.1,1.6-3.6,3.5-4.2c0.7-0.2,1.3-0.3,1.9-0.3c3.5,0,5.4,3.4,7.1,6.3c0.9,1.6,1.8,3.1,2.7,3.9
					c1.3,1.1,2.6,1.6,3.8,1.6c3.2,0,5.7-4.3,6.8-8.5c0.2-0.9,0.4-2,0.6-3.1c0.6-3.9,1.4-8.9,6.1-8.9c1.1,0,2.2,0.3,3.6,0.8
					c3.3,1.3,5.3,3.5,5.7,6.1c0.4,2.6-1,5.4-3.8,7.6c-3.3,2.7-5.4,7.7-5.1,12.3c0.2,2.9,1.4,5.2,3.5,6.5c3.5,2.1,4.8,6.5,3.9,9.5
					C55,58.2,53,59.6,50.3,59.6z M37.4,53c2,0,4.3,0.7,6.5,2.2c2.5,1.6,4.7,2.4,6.4,2.4c2.2,0,3-1.3,3.3-2.4c0.6-2.2-0.4-5.5-3-7.1
					c-2.6-1.6-4.2-4.5-4.5-8.1c-0.3-5.2,2.1-11,5.9-14c2.2-1.8,3.3-3.8,3-5.7c-0.3-1.8-1.8-3.4-4.4-4.5c-1.1-0.4-2-0.7-2.8-0.7
					c-2.6,0-3.3,2.8-4,7.1c-0.2,1.2-0.4,2.3-0.6,3.3c-1.3,4.9-4.2,10.1-8.8,10.1c-1.7,0-3.4-0.7-5.1-2.1c-1.3-1-2.2-2.7-3.2-4.5
					c-1.5-2.6-3-5.2-5.3-5.2c-0.4,0-0.8,0.1-1.3,0.2c-1.2,0.4-1.9,1.2-2.1,2.6c-0.8,4.8,4.7,13.7,7.1,15.4c0.3,0.2,0.4,0.5,0.4,0.8
					c0,0.8-0.6,1.8-1.8,3.9c-1.5,2.5-3.7,6.2-3.3,8.3c0.2,0.9,0.7,1.8,2.9,1.8c2.6,0,6.3-1.3,9.2-2.3c1.4-0.5,2.6-0.9,3.6-1.2
					C36.2,53.1,36.8,53,37.4,53z"/>
			</g>
			<g>
				<path fill="#FFFFFF" d="M48.2,21.5c0.7,1,2.1,1.3,3,0.6c0.9-0.7,1.1-2.1,0.4-3.1c-0.7-1-2.1-1.3-3-0.6
					C47.6,19.1,47.4,20.5,48.2,21.5"/>
			</g>
			<g>
				<path fill="#FFFFFF" d="M20.9,30.3c0.8,1.7,2,2.9,2.6,2.6c0.6-0.3,0.4-1.9-0.4-3.6c-0.8-1.7-2-2.9-2.6-2.6
					C19.9,27,20.1,28.6,20.9,30.3"/>
			</g>
		</g>
	</g>
</g>
</svg>
